<svg xmlns="http://www.w3.org/2000/svg" viewBox="0 0 109.47 134.82">
  <defs>
    <style>.cls-1{fill:#303030;}.cls-2{fill:#fff;}.cls-3{fill:#e0e0e0;}.cls-4{fill:#f3f5f8;}.cls-5{fill:#9dcd4b;}
    </style>
  </defs>
  <title>Checklist</title>
  <g id="Layer_2" data-name="Layer 2">
    <g id="Layer_2-2" data-name="Layer 2">
      <g id="Checklist">
        <rect class="cls-1" x="9.74" y="7.92" width="90" height="120" transform="translate(12.63 -8.47) rotate(10)"/>
        <rect class="cls-2" x="16.29" y="12.77" width="78" height="104" transform="translate(12.09 -8.62) rotate(10)"/>
        <path class="cls-3"
              d="M61.08.83h8.14A15.93,15.93,0,0,1,85.15,16.76v.07a0,0,0,0,1,0,0h-40a0,0,0,0,1,0,0v-.07A15.93,15.93,0,0,1,61.08.83Z"
              transform="translate(2.52 -11.18) rotate(10)"/>
        <g id="Rectangle_419" data-name="Rectangle 419">
          <rect class="cls-2" x="29.32" y="25.82" width="14.4" height="14.4" rx="3.2"
                transform="translate(-2.35 63.25) rotate(-80)"/>
          <path class="cls-4"
                d="M39.07,41.6l-7.88-1.39a4,4,0,0,1-3.25-4.64l1.39-7.87A4,4,0,0,1,34,24.45l7.88,1.39a4,4,0,0,1,3.24,4.63L43.7,38.35A4,4,0,0,1,39.07,41.6ZM33.69,26A2.4,2.4,0,0,0,30.91,28l-1.39,7.88a2.4,2.4,0,0,0,1.95,2.78L39.35,40a2.4,2.4,0,0,0,2.78-1.94l1.39-7.88a2.41,2.41,0,0,0-2-2.78Z"/>
        </g>
        <g id="Accept">
          <g id="Accept-2">
            <path class="cls-5"
                  d="M37.61,37.88a.82.82,0,0,1-.51-.33l-4.17-5.86a.8.8,0,1,1,1.31-.93L38,36l8.23-5.68a.8.8,0,0,1,.9,1.32l-8.87,6.13A.86.86,0,0,1,37.61,37.88Z"/>
          </g>
        </g>
        <g id="Rectangle_419-2" data-name="Rectangle 419">
          <rect class="cls-2" x="24.32" y="54.19" width="14.4" height="14.4" rx="3.2"
                transform="translate(-34.41 81.77) rotate(-80)"/>
          <path class="cls-4"
                d="M34.07,70l-7.88-1.39a4,4,0,0,1-3.25-4.63l1.39-7.88A4,4,0,0,1,29,52.81l7.88,1.39a4,4,0,0,1,3.24,4.64L38.7,66.72A4,4,0,0,1,34.07,70ZM28.69,54.39a2.4,2.4,0,0,0-2.78,2l-1.39,7.88A2.4,2.4,0,0,0,26.47,67l7.87,1.38a2.39,2.39,0,0,0,2.78-1.94l1.39-7.88a2.4,2.4,0,0,0-1.94-2.78Z"/>
        </g>
        <g id="Accept-2-2" data-name="Accept">
          <g id="Accept-2-3" data-name="Accept-2">
            <path class="cls-5"
                  d="M32.61,66.24a.79.79,0,0,1-.51-.33l-4.17-5.86a.8.8,0,0,1,1.31-.92L33,64.34l8.22-5.67a.8.8,0,0,1,1.12.2A.79.79,0,0,1,42.08,60L33.2,66.11A.83.83,0,0,1,32.61,66.24Z"/>
          </g>
        </g>
        <g id="Rectangle_419-3" data-name="Rectangle 419">
          <rect class="cls-2" x="19.32" y="82.55" width="14.4" height="14.4" rx="3.2"
                transform="translate(-66.48 100.28) rotate(-80)"/>
          <path class="cls-4"
                d="M29.07,98.32l-7.88-1.39a4,4,0,0,1-3.25-4.63l1.39-7.88A4,4,0,0,1,24,81.18l7.87,1.39a4,4,0,0,1,3.25,4.63L33.7,95.08A4,4,0,0,1,29.07,98.32ZM23.69,82.75a2.4,2.4,0,0,0-2.78,2l-1.39,7.88a2.4,2.4,0,0,0,1.95,2.78l7.87,1.39a2.4,2.4,0,0,0,2.78-2l1.39-7.88a2.4,2.4,0,0,0-1.94-2.78Z"/>
        </g>
        <g id="Accept-3" data-name="Accept">
          <g id="Accept-2-4" data-name="Accept-2">
            <path class="cls-5"
                  d="M27.61,94.6a.74.74,0,0,1-.51-.32l-4.17-5.87a.8.8,0,0,1,1.31-.92l3.7,5.22L36.17,87a.81.81,0,0,1,1.12.2.79.79,0,0,1-.21,1.11L28.2,94.47A.75.75,0,0,1,27.61,94.6Z"/>
          </g>
        </g>
        <rect class="cls-4" x="53.21" y="33.99" width="32" height="9.6" transform="translate(7.79 -11.43) rotate(10)"/>
        <rect class="cls-4" x="48.21" y="62.35" width="32" height="9.6" transform="translate(12.64 -10.13) rotate(10)"/>
        <rect class="cls-4" x="43.21" y="90.71" width="32" height="9.6" transform="translate(17.49 -8.83) rotate(10)"/>
      </g>
    </g>
  </g>
</svg>
