<svg xmlns="http://www.w3.org/2000/svg" width="48" height="48" viewBox="0 0 48 48"><defs><style>.a{fill:#fff;stroke:#f5f7fa;}.a,.b{stroke-width:2px;}.b,.d{fill:none;}.b{stroke:#1dbab8;stroke-linecap:round;stroke-linejoin:round;}.c{stroke:none;}</style></defs><g transform="translate(12 12)"><g class="a" transform="translate(-12 -12)"><rect class="c" width="48" height="48" rx="24"/><rect class="d" x="1" y="1" width="46" height="46" rx="23"/></g><path class="b" d="M4.55,8.884A11.34,11.34,0,0,1,8.378.16.638.638,0,0,1,9.429.553c.763,4.841,6.283,7.026,4.038,13.07a7.022,7.022,0,0,1-9.59,3.654A6.921,6.921,0,0,1,.059,10.089,5.82,5.82,0,0,1,1.811,6.147a.643.643,0,0,1,1,.338,4.188,4.188,0,0,0,1.736,2.4" transform="translate(5 3)"/></g></svg>