<svg xmlns="http://www.w3.org/2000/svg" width="24" height="26" fill="none" viewBox="0 0 24 26">
  <g transform="translate(1 1)">
    <line class="a" stroke-linecap="round" y2="2.087" transform="translate(2.85)"/>
    <line stroke-linecap="round" y2="2.087" transform="translate(8.55)"/>
    <path fill="none"  stroke="strokeProps" stroke-linejoin="round" stroke-width="2px" d="M319,182.652" transform="translate(-300 -170)"/>
    <ellipse fill="none"  stroke="strokeProps" stroke-linejoin="round" stroke-width="2px" cx="3" cy="3.13" rx="3" ry="3.13" transform="translate(16 6.261)"/>
    <path  fill="none"  stroke="strokeProps" stroke-linejoin="round" stroke-width="2px" d="M319,182.522v7.3A4,4,0,0,1,315.2,194h-5.7a4,4,0,0,1-3.8-4.174V179.391"
          transform="translate(-300 -170)"/>
    <path fill="none"  stroke="strokeProps" stroke-linejoin="round" stroke-width="2px"
          d="M302.85,171.043h-.95a2,2,0,0,0-1.9,2.087v2.087a4,4,0,0,0,3.8,4.174h3.8a4,4,0,0,0,3.8-4.174V173.13a2,2,0,0,0-1.9-2.087h-.95"
          transform="translate(-300 -170)"/>
  </g>
</svg>
