<svg xmlns="http://www.w3.org/2000/svg" viewBox="0 0 64 66">
  <defs>
    <style>
      .cls-1,.cls-2,.cls-3,.cls-4{fill:none;}.cls-2,.cls-3,.cls-4{stroke-width:2px;}.cls-3{stroke-linecap:round;}.cls-3,.cls-4{stroke-linejoin:round;}
    </style>
  </defs>
  <title>Doc</title>
  <g id="Layer_2" data-name="Layer 2">
    <g id="Layer_2-2" data-name="Layer 2">
      <g id="Doc">
        <rect class="cls-1"  y="1" width="64" height="64"/>
        <path id="Path_687" data-name="Path 687" class="cls-2" stroke="strokeProps"
              d="M60,28A8,8,0,1,0,49.84,35.7,7.5,7.5,0,0,0,52,36a10.49,10.49,0,0,0,2.16-.29A8,8,0,0,0,60,28Z"/>
        <line id="Line_19" data-name="Line 19" class="cls-3" stroke="strokeProps" x1="12" y1="1" x2="12" y2="7"/>
        <line id="Line_20" data-name="Line 20" class="cls-3" stroke="strokeProps" x1="28" y1="1" x2="28" y2="7"/>
        <path class="cls-4" stroke="strokeProps" d="M52,36V53A12,12,0,0,1,40,65H32A12,12,0,0,1,20,53V29"/>
        <path class="cls-4" stroke="strokeProps" d="M12,4H8A4,4,0,0,0,4,8v9A12,12,0,0,0,16,29h8A12,12,0,0,0,36,17V8a4,4,0,0,0-4-4H28"/>
        <circle class="cls-4"  stroke="strokeProps" cx="52" cy="28" r="3"/>
      </g>
    </g>
  </g>
</svg>
