<svg xmlns="http://www.w3.org/2000/svg" width="48" height="48" viewBox="0 0 48 48"><defs><style>.a,.d{fill:none;}.b{fill:#f9f9f9;stroke:#999;}.b,.d{stroke-linecap:round;stroke-linejoin:round;}.b,.c,.d{stroke-width:2px;}.c{fill:#fff;}.c,.d{stroke:#9dcd4b;}</style></defs><rect class="a" width="48" height="48"/><path class="b" d="M29,12.618v20.6A1.747,1.747,0,0,1,27.286,35H6.714A1.747,1.747,0,0,1,5,33.222V4.778A1.747,1.747,0,0,1,6.714,3H19.726a1.684,1.684,0,0,1,1.2.516L28.5,11.373A1.812,1.812,0,0,1,29,12.618Z" transform="translate(3 1)"/><g transform="translate(-328 -520)"><circle class="c" cx="11" cy="11" r="11" transform="translate(346 542)"/><path class="d" d="M-.03,5.92H3.93V-.02" transform="translate(358.207 549.036) rotate(45)"/></g></svg>