<svg xmlns="http://www.w3.org/2000/svg" width="15.909" height="20.047" viewBox="0 0 15.909 20.047"><defs><style>.a{fill:none;stroke:#f25657;stroke-linecap:round;stroke-linejoin:round;stroke-width:2px;}</style></defs><g transform="translate(1.018 1.014)"><path class="a" d="M4.55,8.884A11.34,11.34,0,0,1,8.378.16.638.638,0,0,1,9.429.553c.763,4.841,6.283,7.026,4.038,13.07a7.022,7.022,0,0,1-9.59,3.654A6.921,6.921,0,0,1,.059,10.089,5.82,5.82,0,0,1,1.811,6.147a.643.643,0,0,1,1,.338,4.188,4.188,0,0,0,1.736,2.4" transform="translate(-0.001 0)"/></g></svg>