<svg xmlns="http://www.w3.org/2000/svg" xmlns:xlink="http://www.w3.org/1999/xlink" viewBox="0 0 136.71 163.09">
  <defs>
    <style>
      .cls-1{fill:#e0e0e0;}.cls-2{fill:#303030;}.cls-3{fill:url(#linear-gradient);}.cls-4{fill:url(#linear-gradient-2);}
    </style>
    <linearGradient id="linear-gradient" x1="27.03" y1="120.29" x2="104.22" y2="120.29"
                    gradientTransform="translate(-23.46 23.99) rotate(-15)" gradientUnits="userSpaceOnUse">
      <stop offset="0" stop-color="#3bc4c1"/>
      <stop offset="1" stop-color="#01b8b6"/>
    </linearGradient>
    <linearGradient id="linear-gradient-2" x1="62.44" y1="86.07" x2="140.42" y2="86.07" xlink:href="#linear-gradient"/>
  </defs>
  <title>Fono</title>
  <g id="Layer_2" data-name="Layer 2">
    <g id="Layer_2-2" data-name="Layer 2">
      <g id="Fono">
        <path class="cls-1"
              d="M58.15,67.34l-3.84,1-12.05-45a5.17,5.17,0,0,1,3.66-6.33l9.61-2.58,1,3.84L47,20.91a1.19,1.19,0,0,0-.85,1.46Z"/>
        <path class="cls-2" d="M62.45,18.81l2.31-.61A3.2,3.2,0,0,0,67,14.3l-.41-1.54a3.2,3.2,0,0,0-3.9-2.25l-2.31.62Z"/>
        <path class="cls-1"
              d="M62.45,18.81l-5.38,1.45A3.2,3.2,0,0,1,53.17,18l-.41-1.53A3.2,3.2,0,0,1,55,12.57l5.38-1.44Z"/>
        <path class="cls-1"
              d="M127.33,48.8l-3.84,1-12-45A1.2,1.2,0,0,0,110,4l-9.61,2.57-1-3.84L109,.18a5.17,5.17,0,0,1,6.33,3.65Z"/>
        <path class="cls-2" d="M95.5,10l-2.3.62a3.2,3.2,0,0,1-3.9-2.25l-.41-1.54a3.19,3.19,0,0,1,2.25-3.9l2.3-.62Z"/>
        <path class="cls-1"
              d="M95.5,10l5.38-1.44a3.2,3.2,0,0,0,2.26-3.9l-.42-1.54A3.19,3.19,0,0,0,98.82.83L93.44,2.27Z"/>
        <circle class="cls-2" cx="12.74" cy="43.88" r="12.73"/>
        <rect class="cls-1" x="19.91" y="49.03" width="3.98" height="58.09"
              transform="translate(-19.46 8.33) rotate(-15)"/>
        <circle class="cls-1" cx="12.74" cy="43.88" r="8.36"/>
        <circle class="cls-2" cx="12.74" cy="43.88" r="3.18"/>
        <path class="cls-3"
              d="M85,159.83l-7.69,2.06a35,35,0,0,1-42.85-24.63L24.13,98.7a3.18,3.18,0,0,1,6.15-1.65l10.33,38.57a28.61,28.61,0,0,0,35.05,20.12l7.69-2.06a28.61,28.61,0,0,0,20.29-34.95,3.18,3.18,0,1,1,6.15-1.65A35,35,0,0,1,85,159.83Z"/>
        <path class="cls-3"
              d="M110.73,117.51,103,119.57A35,35,0,0,1,60.2,94.94L49.86,56.38A3.18,3.18,0,0,1,56,54.73L66.35,93.3a28.6,28.6,0,0,0,35,20.12l7.69-2.06a28.61,28.61,0,0,0,20.29-34.95L119,37.84a3.18,3.18,0,0,1,6.15-1.65l10.33,38.57A35,35,0,0,1,110.73,117.51Z"/>
      </g>
    </g>
  </g>
</svg>
