<svg xmlns="http://www.w3.org/2000/svg" viewBox="0 0 20 20.01"><defs><style>.cls-1{fill:#fff;}</style></defs><g id="Layer_2" data-name="Layer 2"><g id="TEXT"><g id="Heart-2"><path id="Path_715" data-name="Path 715" class="cls-1" d="M13.16,6.84S14.35.07,7.25,0L6.59,0V6.58H.48A25.3,25.3,0,0,0,0,12c0,.47,0,.94,0,1.42H6.59V20L8,20a25.2,25.2,0,0,0,5.41-.47V13.42H20c0-.22,0-.44,0-.67C19.94,5.66,13.16,6.84,13.16,6.84Z"/><g id="Group_370" data-name="Group 370"><path id="Path_716" data-name="Path 716" class="cls-1" d="M5.51,14.45H.05a28,28,0,0,0,.79,4.72A28.28,28.28,0,0,0,5.51,20Z"/><path id="Path_717" data-name="Path 717" class="cls-1" d="M.72,5.42H5.5V.1C2.86.74,1.45,2.92.72,5.42Z"/><path id="Path_718" data-name="Path 718" class="cls-1" d="M14.59,19.29c2.51-.74,4.7-2.16,5.32-4.84H14.59Z"/></g></g></g></g></svg>