<svg xmlns="http://www.w3.org/2000/svg" viewBox="0 0 64 64">
  <defs>
    <filter id="innershadow" x0="-50%" y0="-50%" width="200%" height="200%">
      <feGaussianBlur in="SourceAlpha" stdDeviation="3" result="blur"></feGaussianBlur>
      <feOffset dy="2" dx="3"></feOffset>
      <feComposite in2="SourceAlpha" operator="arithmetic" k2="-1" k3="1" result="shadowDiff"></feComposite>

      <feFlood flood-color="white" flood-opacity="0.6"></feFlood>
      <feComposite in2="shadowDiff" operator="in"></feComposite>
      <feComposite in2="SourceGraphic" operator="over" result="firstfilter"></feComposite>


      <feGaussianBlur in="firstfilter" stdDeviation="3" result="blur2"></feGaussianBlur>
      <feOffset dy="-2" dx="-3"></feOffset>
      <feComposite in2="firstfilter" operator="arithmetic" k2="-1" k3="1" result="shadowDiff"></feComposite>

      <feFlood flood-color="white" flood-opacity="0.6"></feFlood>
      <feComposite in2="shadowDiff" operator="in"></feComposite>
      <feComposite in2="firstfilter" operator="over"></feComposite>
    </filter>

  </defs>
  <g id="Heart" filter="url(#innershadow)">
    <path class="shadow" stroke="white"
          d="M42.1,21.89S45.89.21,23.19,0c-.73,0-1.44,0-2.13.07v21H1.5A81.59,81.59,0,0,0,0,38.38c0,1.52,0,3,.07,4.56h21v21c1.52.06,3,.09,4.55.07a81.08,81.08,0,0,0,17.33-1.5V42.94h21c0-.69.08-1.4.07-2.13C63.79,18.11,42.1,21.89,42.1,21.89Z"/>
    <path stroke="white" d="M17.62,46.22H.29a87.6,87.6,0,0,0,2.51,15,87.57,87.57,0,0,0,14.82,2.5Z"/>
    <path stroke="white" d="M2.4,17.5H17.62V.6C9.21,2.63,4.73,9.55,2.4,17.5Z"/>
    <path  stroke="white" d="M46.5,61.6c8-2.35,15-6.87,16.94-15.38H46.5Z"/>
  </g>
</svg>
