<svg xmlns="http://www.w3.org/2000/svg" viewBox="0 0 64.02 64.01"><defs><style>.cls-1{fill:#128786;}</style></defs><g id="Layer_2" data-name="Layer 2"><g id="Layer_1-2" data-name="Layer 1"><path id="Path_715" data-name="Path 715" class="cls-1" d="M42.12,21.9S45.91.21,23.21,0c-.73,0-1.44,0-2.13.07v21H1.52A81.25,81.25,0,0,0,0,38.39c0,1.51,0,3,.08,4.55h21v21c1.52.06,3,.09,4.55.08A82,82,0,0,0,43,62.5V42.94H64c0-.69.07-1.4.07-2.13C63.81,18.11,42.12,21.9,42.12,21.9Z"/><g id="Group_370" data-name="Group 370"><path id="Path_716" data-name="Path 716" class="cls-1" d="M17.63,46.23H.25a88,88,0,0,0,2.51,15,89.16,89.16,0,0,0,14.87,2.5Z"/><path id="Path_717" data-name="Path 717" class="cls-1" d="M2.37,17.43H17.63V.48C9.2,2.52,4.71,9.45,2.37,17.43Z"/><path id="Path_718" data-name="Path 718" class="cls-1" d="M46.58,61.65c8-2.35,15-6.88,17-15.42h-17Z"/></g></g></g></svg>