<svg xmlns="http://www.w3.org/2000/svg" viewBox="0 0 36 36"><defs><style>.a,.b{fill:none;}.b{stroke:#1dbab8;stroke-linecap:round;stroke-linejoin:round;stroke-width:2px;}</style></defs><g transform="translate(6 6)"><rect class="a" width="32" height="32" transform="translate(-4 -4)"/><line class="b" x2="6" transform="translate(9 12)"/><line class="b" x2="6" transform="translate(9 16)"/><line class="b" x2="4" transform="translate(9 8)"/><g transform="translate(5 3)"><path class="b" d="M19,8.41V20a1,1,0,0,1-1,1H6a1,1,0,0,1-1-1V4A1,1,0,0,1,6,3h7.59a1,1,0,0,1,.7.29l4.42,4.42A1,1,0,0,1,19,8.41Z" transform="translate(-5 -3)"/></g></g><rect class="a" width="36" height="36"/></svg>
