<svg xmlns="http://www.w3.org/2000/svg" width="48" height="48" viewBox="0 0 48 48"><defs><style>.a,.e{fill:none;}.b{fill:#f9f9f9;}.b,.c,.d,.e{stroke:#999;stroke-width:2px;}.b,.c,.e{stroke-linecap:round;}.c,.d{fill:#fff;}.c{stroke-linejoin:round;}.f{fill:#999;}</style></defs><rect class="a" width="48" height="48"/><path class="b" d="M109.745,7.534A15.957,15.957,0,0,0,96.326,0c-.238,0-.478,0-.716,0A15.957,15.957,0,0,0,82.19,7.534a14.6,14.6,0,0,0-.211,15.136l11.54,19.971.016.026a2.888,2.888,0,0,0,4.866,0l.016-.026,11.54-19.971a14.6,14.6,0,0,0-.211-15.136Z" transform="translate(-75.968 2)"/><path class="c" d="M14.586,1.429C10.889-2.035,8,1.889,8,1.889s-2.888-3.924-6.586-.46c-3.423,3.207.157,7.335,2.452,9.486A20.162,20.162,0,0,0,8,14a20.159,20.159,0,0,0,4.134-3.085C14.43,8.764,18.009,4.635,14.586,1.429Z" transform="translate(18.9 6) rotate(45)"/><g transform="translate(-324 -518)"><circle class="d" cx="11" cy="11" r="11" transform="translate(346 542)"/><line class="e" y2="7.333" transform="translate(357 546.889)"/><circle class="f" cx="1.222" cy="1.222" r="1.222" transform="translate(355.778 556.667)"/></g></svg>