<svg xmlns="http://www.w3.org/2000/svg" width="20.179" height="26" viewBox="0 0 20.179 26">
  <defs>
    <style>.a,.b{fill:none;stroke:#333;stroke-linecap:round;stroke-width:2px;}.a{stroke-linejoin:round;}</style>
  </defs>
  <g transform="translate(1.09 1)">
    <path class="a"
          d="M1243.293,749.714a23.711,23.711,0,0,1-6.586,0c-1.711,1.6.078,3.667,1.226,4.743a2.156,2.156,0,0,0,4.134,0C1243.215,753.382,1245,751.318,1243.293,749.714Z"
          transform="translate(-335.911 -1399.607) rotate(45)"/>
    <path class="b"
          d="M96.717,4.109A9.039,9.039,0,0,0,89.169,0c-.134,0-.269,0-.4,0a9.039,9.039,0,0,0-7.548,4.108,7.756,7.756,0,0,0-.119,8.256L87.59,23.258l.009.014a1.652,1.652,0,0,0,2.737,0l.009-.014,6.491-10.893a7.756,7.756,0,0,0-.119-8.256Z"
          transform="translate(-79.968 0.001)"/>
  </g>
</svg>
