<svg xmlns="http://www.w3.org/2000/svg" viewBox="0 0 50 44">
  <defs>
    <style>
      .cls-1,.cls-2{fill:none;stroke-width:2px;}.cls-1{stroke-miterlimit:10;}.cls-2{stroke-linecap:round;stroke-linejoin:round;}
    </style>
  </defs>
  <title>MRI</title>
  <g id="MRI">
    <path class="cls-1" stroke="strokeProps" d="M9.13,43H40.87A24,24,0,1,0,9.13,43Z"/>
    <path class="cls-2" stroke="strokeProps" d="M36.15,30.62a11.82,11.82,0,0,0,1.23-5.24,12,12,0,0,0-24,0,11.81,11.81,0,0,0,1.22,5.24"/>
    <path class="cls-2" stroke="strokeProps"
          d="M31.38,42.62v-4.5a1.5,1.5,0,0,1,1.5-1.5H35a1.5,1.5,0,0,0,1.34-.82l2-4.09a.75.75,0,0,0-.67-1.09H13.09a.75.75,0,0,0-.67,1.09l2,4.09a1.5,1.5,0,0,0,1.34.82h2.08a1.51,1.51,0,0,1,1.5,1.5v4.5"/>
  </g>
</svg>
