<svg xmlns="http://www.w3.org/2000/svg" width="20.169" height="20.168" viewBox="0 0 20.169 20.168"><defs><style>.a{fill:none;stroke:#1dbab8;stroke-width:2px;}</style></defs><path class="a" d="M1.011,13.21,3.528,10.7a1.676,1.676,0,0,1,2.787.628A1.714,1.714,0,0,0,8.293,12.4a7.754,7.754,0,0,0,4.675-4.665,1.625,1.625,0,0,0-1.079-1.974,1.669,1.669,0,0,1-.629-2.781L13.777.471a1.8,1.8,0,0,1,2.427,0l1.708,1.7c1.708,1.794-.18,6.549-4.405,10.766s-8.99,6.19-10.788,4.4l-1.708-1.7A1.789,1.789,0,0,1,1.011,13.21Z" transform="translate(0.605 1.143)"/></svg>