<svg xmlns="http://www.w3.org/2000/svg" width="66" height="66" viewBox="0 0 66 66">
  <defs>
    <style>
      .a{stroke:#333;}.a,.b{stroke-linecap:round;stroke-linejoin:round;stroke-width:2px;}.b{fill:none;stroke:#fff;}
    </style>
  </defs>
  <g transform="translate(-248 -398)">
    <g transform="translate(23 -113)">
      <path class="a" fill="#000"
            d="M283.334,512H266.418a11.929,11.929,0,0,0-8.485,3.515l-29.659,29.66a7.77,7.77,0,0,0,0,10.985l17.56,17.565a7.779,7.779,0,0,0,10.994,0l29.658-29.658A12.083,12.083,0,0,0,290,535.581V518.667A6.667,6.667,0,0,0,283.334,512ZM276,532a6,6,0,1,1,6-6A6,6,0,0,1,276,532Z"/>
      <line class="b" y2="18" transform="translate(252 542)"/>
      <circle class="b" cx="3" cy="3" r="3" transform="translate(242 544)"/>
      <circle class="b" cx="3" cy="3" r="3" transform="translate(256 552)"/>
    </g>
  </g>
</svg>
