<svg xmlns="http://www.w3.org/2000/svg" width="26.237" height="26" viewBox="0 0 26.237 26"><defs><style>.a,.c{fill:none;}.a{stroke:#333;stroke-width:2px;}.b{stroke:none;}</style></defs><g transform="translate(1.237 1)"><path class="a" d="M9.506,24a2.932,2.932,0,0,1-2.062-.853L.858,16.56a2.914,2.914,0,0,1,0-4.119L11.981,1.318A4.472,4.472,0,0,1,15.163,0h6.343a2.5,2.5,0,0,1,2.5,2.5V8.843a4.531,4.531,0,0,1-1.318,3.182L11.566,23.147h0A2.93,2.93,0,0,1,9.506,24Z" transform="translate(-0.006 0)"/><g class="a" transform="translate(15 3)"><circle class="b" cx="3" cy="3" r="3"/><circle class="c" cx="3" cy="3" r="2"/></g></g></svg>