<svg xmlns="http://www.w3.org/2000/svg" viewBox="0 0 66 66">
  <defs>
    <style>
      .cls-1{fill:none;}.cls-2,.cls-2,.cls-3{stroke:#333;stroke-linecap:round;stroke-linejoin:round;stroke-width:2px;fill-rule:evenodd;}.cls-3,.cls-6{fill:#fff;}.cls-5{fill:#333;}
    </style>
  </defs>
  <g id="Layer_2" data-name="Layer 2">
    <g id="Celebration">
      <g id="Celebration-2" data-name="Celebration">
        <rect class="cls-1" x="1" y="1" width="64" height="64"/>
        <path class="cls-2" d="M35.72,40,19.13,23.36l-4.81,10C20.91,37.61,28.46,40.67,35.72,40Z"/>
        <path class="cls-3" d="M35.72,40c-7.26.71-14.8-2.35-21.4-6.58l-4,8.33c5.74,4.74,12.89,9.27,20.21,11l12.1-5.8Z"/>
        <path class="cls-2" d="M30.54,52.67c-7.32-1.69-14.47-6.22-20.21-11l-4.78,10A70.58,70.58,0,0,0,16.31,59.5Z"/>
        <path class="cls-3" d="M16.31,59.5A70.58,70.58,0,0,1,5.55,51.69L1.29,60.57a3.1,3.1,0,0,0,4.14,4.14Z"/>
        <path class="cls-2"
              d="M26.43,14.46l3.33,3.37a2.75,2.75,0,0,1,0,3.88,11.25,11.25,0,0,0,2-2.15A6.76,6.76,0,0,0,33,15.64c0-3.17-1.59-4.62-3.19-6.06-.2-.19-.4-.37-.58-.56L25.83,5.64a2.76,2.76,0,0,1,0-3.88,11.55,11.55,0,0,0-2,2.15,6.71,6.71,0,0,0-1.21,3.92c0,3.18,1.59,4.62,3.18,6.07.21.19.42.37.6.56Z"/>
        <path class="cls-3"
              d="M51.54,39.57l-3.37-3.33a2.76,2.76,0,0,0-3.88,0,11.58,11.58,0,0,1,2.15-2,6.78,6.78,0,0,1,3.92-1.21c3.17,0,4.62,1.6,6.07,3.19.18.2.36.4.55.58l3.38,3.35a2.76,2.76,0,0,0,3.88,0,11.55,11.55,0,0,1-2.15,2,6.71,6.71,0,0,1-3.92,1.21c-3.17,0-4.62-1.59-6.07-3.18A8.09,8.09,0,0,0,51.54,39.57Z"/>
        <path class="cls-3"
              d="M28.68,7.18a7.74,7.74,0,0,1,1.08-1.1,2.92,2.92,0,1,0-3.93-4.32,2.76,2.76,0,0,0,0,3.88L29.18,9a1.85,1.85,0,0,1-.68-1.19A1.09,1.09,0,0,1,28.68,7.18Z"/>
        <path class="cls-3"
              d="M29.76,17.83l-3.33-3.37a1.86,1.86,0,0,1,.66,1.18,1.09,1.09,0,0,1-.18.65,7.74,7.74,0,0,1-1.08,1.1,2.92,2.92,0,0,0,3.93,4.32,2.75,2.75,0,0,0,0-3.88Z"/>
        <path class="cls-2"
              d="M44.29,36.24a2.92,2.92,0,0,0,4.32,3.93,7.74,7.74,0,0,1,1.1-1.08,1.09,1.09,0,0,1,.65-.18,1.86,1.86,0,0,1,1.18.66l-3.37-3.33A2.76,2.76,0,0,0,44.29,36.24Z"/>
        <path class="cls-2"
              d="M57,36.82l3.38,3.35a2.76,2.76,0,0,0,3.88,0,2.92,2.92,0,1,0-4.32-3.93,7.74,7.74,0,0,1-1.1,1.08,1.09,1.09,0,0,1-.65.18A1.87,1.87,0,0,1,57,36.82Z"/>
        <path class="cls-2"
              d="M50.92,16.92a2.61,2.61,0,0,0,3.68,0l1.84-1.84a2.61,2.61,0,0,0,0-3.68L54.6,9.56a2.61,2.61,0,0,0-3.68,0L49.08,11.4a2.61,2.61,0,0,0,0,3.68Z"/>
        <path class="cls-4" fill="#000" d="M43.4,4.94a1.08,1.08,0,1,1,1.09-1.08A1.08,1.08,0,0,1,43.4,4.94Z"/>
        <path class="cls-5"
              d="M43.4,3.78a.09.09,0,0,1,.09.08.08.08,0,0,1-.09.08.08.08,0,0,1-.08-.08.09.09,0,0,1,.08-.08m0-2a2.08,2.08,0,1,0,2.09,2.08A2.08,2.08,0,0,0,43.4,1.78Z"/>
        <path class="cls-6" d="M39.24,16.39a1.08,1.08,0,1,1,1.08-1.08A1.08,1.08,0,0,1,39.24,16.39Z"/>
        <path class="cls-5"
              d="M39.24,15.23a.08.08,0,0,1,.08.08.07.07,0,0,1-.08.08.08.08,0,0,1-.08-.08.09.09,0,0,1,.08-.08m0-2a2.08,2.08,0,1,0,2.08,2.08,2.08,2.08,0,0,0-2.08-2.08Z"/>
        <path class="cls-6" d="M38.2,28.88a1.08,1.08,0,1,1,1.08-1.08A1.08,1.08,0,0,1,38.2,28.88Z"/>
        <path class="cls-5"
              d="M38.2,27.72a.07.07,0,0,1,.08.08.08.08,0,0,1-.08.08.09.09,0,0,1-.08-.08.08.08,0,0,1,.08-.08m0-2a2.08,2.08,0,1,0,2.08,2.08,2.08,2.08,0,0,0-2.08-2.08Z"/>
        <path class="cls-4" d="M50.69,27.84a1.08,1.08,0,1,1,1.08-1.08A1.08,1.08,0,0,1,50.69,27.84Z"/>
        <path class="cls-5"
              d="M50.69,26.68a.08.08,0,0,1,.08.08.09.09,0,0,1-.08.08.08.08,0,0,1-.08-.08.07.07,0,0,1,.08-.08m0-2a2.08,2.08,0,1,0,2.08,2.08,2.08,2.08,0,0,0-2.08-2.08Z"/>
        <path class="cls-6" d="M62.14,23.68a1.09,1.09,0,1,1,1.08-1.08A1.08,1.08,0,0,1,62.14,23.68Z"/>
        <path class="cls-5"
              d="M62.14,22.51a.09.09,0,0,1,.08.09.09.09,0,0,1-.08.08.08.08,0,0,1-.08-.08.08.08,0,0,1,.08-.09m0-2a2.09,2.09,0,1,0,2.08,2.09,2.09,2.09,0,0,0-2.08-2.09Z"/>
        <path class="cls-4" d="M61.1,6A1.09,1.09,0,1,1,62.18,4.9,1.08,1.08,0,0,1,61.1,6Z"/>
        <path class="cls-5"
              d="M61.1,4.82a.09.09,0,0,1,.08.08A.09.09,0,0,1,61.1,5,.08.08,0,0,1,61,4.9a.08.08,0,0,1,.08-.08m0-2A2.09,2.09,0,1,0,63.18,4.9,2.08,2.08,0,0,0,61.1,2.82Z"/>
      </g>
    </g>
  </g>
</svg>
