<svg xmlns="http://www.w3.org/2000/svg" viewBox="0 0 62 66">
  <defs>
    <style>
      .cls-1{fill:#fff;}.cls-1,.cls-2,.cls-3{stroke:#333;stroke-linecap:round;stroke-linejoin:round;stroke-width:2px;}.cls-3{fill:none;}
    </style>
  </defs>
  <g id="Layer_2" data-name="Layer 2">
    <g id="News">
      <g id="Newspaper">
        <path class="cls-1"
              d="M54.15,64.06a.93.93,0,0,0-.91-.94,7.9,7.9,0,0,1-7.76-8V3a2,2,0,0,0-2-2H2.81A1.84,1.84,0,0,0,1,2.87V55.09A9.75,9.75,0,0,0,10.57,65H53.24A1,1,0,0,0,54.15,64.06Z"/>
        <path class="cls-2" fill="#000"
              d="M57.12,12.78H47.29a1.84,1.84,0,0,0-1.81,1.88V56.85A8,8,0,0,0,53.14,65,7.89,7.89,0,0,0,61,57V16.8A4,4,0,0,0,57.12,12.78Z"/>
        <line id="Line_40" data-name="Line 40" class="cls-3" x1="5" y1="25" x2="41" y2="25"/>
        <line id="Line_41" data-name="Line 41" class="cls-3" x1="5" y1="29" x2="21" y2="29"/>
        <line id="Line_42" data-name="Line 42" class="cls-3" x1="5" y1="33" x2="21" y2="33"/>
        <line id="Line_43" data-name="Line 43" class="cls-3" x1="5" y1="37" x2="21" y2="37"/>
        <line id="Line_44" data-name="Line 44" class="cls-3" x1="5" y1="41" x2="21" y2="41"/>
        <line id="Line_45" data-name="Line 45" class="cls-3" x1="5" y1="45" x2="21" y2="45"/>
        <line id="Line_41-2" data-name="Line 41" class="cls-3" x1="46" y1="29" x2="57" y2="29"/>
        <line id="Line_42-2" data-name="Line 42" class="cls-3" x1="46" y1="33" x2="57" y2="33"/>
        <line id="Line_43-2" data-name="Line 43" class="cls-3" x1="46" y1="37" x2="57" y2="37"/>
        <line id="Line_44-2" data-name="Line 44" class="cls-3" x1="46" y1="41" x2="57" y2="41"/>
        <line id="Line_45-2" data-name="Line 45" class="cls-3" x1="46" y1="45" x2="57" y2="45"/>
        <rect class="cls-2" x="5" y="9" width="36" height="8" rx="2"/>
        <rect id="Rectangle_432" data-name="Rectangle 432" class="cls-2" x="25" y="29" width="16" height="16" rx="2"/>
        <line id="Line_40-2" data-name="Line 40" class="cls-3" x1="5" y1="49" x2="41" y2="49"/>
        <line id="Line_40-3" data-name="Line 40" class="cls-3" x1="5" y1="53" x2="41" y2="53"/>
      </g>
    </g>
  </g>
</svg>
