<svg xmlns="http://www.w3.org/2000/svg" viewBox="0 0 66 64">
  <defs>
    <style>
      .cls-1,.cls-3{fill:none;}.cls-2{fill:#000;}.cls-3{stroke:strokeProps;stroke-linecap:round;stroke-linejoin:round;stroke-width:2px;}
    </style>
  </defs>
  <g id="Layer_2" data-name="Layer 2">
    <g id="Layer_17" data-name="Layer 17">
      <g id="CT">
        <rect id="BG" class="cls-1" x="1.01" width="63.99" height="64"/>
        <path class="cls-2" fill="#000"
              d="M49.93,24H42.34a4,4,0,0,1-4-4V14.23A26.66,26.66,0,0,0,10,58.67H21.42V53.25h0a1.67,1.67,0,0,0-1.67-1.67h-2.3A1.65,1.65,0,0,1,16,50.66l-2.27-4.54a.92.92,0,0,1-.09-.37.84.84,0,0,1,.84-.83h1.67a13.33,13.33,0,1,1,24,0h1.67a.85.85,0,0,1,.38.09.82.82,0,0,1,.37,1.11l-2.27,4.54a1.65,1.65,0,0,1-1.49.92h-2.3a1.67,1.67,0,0,0-1.67,1.67v5.42H45.3A26.64,26.64,0,0,0,49.93,24Z"/>
        <path id="Path_689" data-name="Path 689" class="cls-3"
              d="M38.34,14.23A26.66,26.66,0,0,0,10,58.67H45.3A26.64,26.64,0,0,0,49.93,24"/>
        <path id="Path_690" data-name="Path 690" class="cls-3" d="M40.06,44.92a13.33,13.33,0,1,0-24,0"/>
        <path id="Path_691" data-name="Path 691" class="cls-3"
              d="M34.75,58.25v-5a1.67,1.67,0,0,1,1.67-1.67h2.3a1.65,1.65,0,0,0,1.49-.92l2.27-4.54A.82.82,0,0,0,42.11,45a.85.85,0,0,0-.38-.09H14.44a.83.83,0,0,0-.83.83.77.77,0,0,0,.08.37L16,50.66a1.65,1.65,0,0,0,1.49.92h2.3a1.67,1.67,0,0,1,1.67,1.67h0v5"/>
        <rect id="Rectangle_421" data-name="Rectangle 421" class="cls-3" x="38.34" y="2.67" width="26.66" height="21.33"
              rx="4"/>
      </g>
    </g>
  </g>
</svg>
