<svg xmlns="http://www.w3.org/2000/svg" viewBox="0 0 66 64">
  <defs>
    <style>
      .cls-1,.cls-3{fill:none;}.cls-2{fill:#000;}.cls-3{stroke:strokeProps;stroke-linecap:round;stroke-linejoin:round;stroke-width:2px;}
    </style>
  </defs>
  <g id="Layer_2" data-name="Layer 2">
    <g id="Layer_16" data-name="Layer 16">
      <g id="MRI">
        <rect id="Bg" class="cls-1" x="1" width="64" height="64"/>
        <path class="cls-2"
              d="M57,13.5A32,32,0,0,0,9,55.81a30.88,30.88,0,0,0,2.86,2.86H25.5v-.5h0v-6a2,2,0,0,0-2-2H20.74A2,2,0,0,1,19,49.06l-2.73-5.45a1,1,0,0,1-.1-.44,1,1,0,0,1,1-1h2a16,16,0,1,1,28.74,0h2a1,1,0,0,1,.45.1,1,1,0,0,1,.45,1.34l-2.73,5.45a2,2,0,0,1-1.79,1.11H43.5a2,2,0,0,0-2,2v6h0v.5H54.15A32,32,0,0,0,57,13.5Z"/>
        <path id="Path_686" data-name="Path 686" class="cls-3"
              d="M11.85,58.67h42.3A32,32,0,1,0,9,55.81,30.88,30.88,0,0,0,11.85,58.67Z"/>
        <path id="Path_687" data-name="Path 687" class="cls-3" d="M47.87,42.17a16,16,0,1,0-28.74,0"/>
        <path id="Path_688" data-name="Path 688" class="cls-3"
              d="M41.5,58.17v-6a2,2,0,0,1,2-2h2.76a2,2,0,0,0,1.79-1.11l2.73-5.45a1,1,0,0,0-.45-1.34,1,1,0,0,0-.45-.1H17.12a1,1,0,0,0-1,1,1,1,0,0,0,.1.44L19,49.06a2,2,0,0,0,1.79,1.11H23.5a2,2,0,0,1,2,2v6"/>
      </g>
    </g>
  </g>
</svg>
