<svg xmlns="http://www.w3.org/2000/svg" viewBox="0 0 66 66">
  <defs>
    <style>
      .cls-1,.cls-3{fill:none;}.cls-2{fill:#1dbab8;}.cls-3{stroke:strokeProps;stroke-linecap:round;stroke-linejoin:round;stroke-width:2px;}
    </style>
  </defs>
  <g id="Layer_2" data-name="Layer 2">
    <g id="Layer_18" data-name="Layer 18">
      <g id="US">
        <rect id="BG" class="cls-1" x="1" y="1" width="64" height="64"/>
        <path class="cls-2"
              d="M18.32,19.54l-1.63,1.62a3.07,3.07,0,0,0,0,4.33h0l1.09,1.08a3.07,3.07,0,0,1,0,4.33L7.49,41.19A12.25,12.25,0,0,0,24.81,58.51L35.1,48.22a3.07,3.07,0,0,1,4.33,0l1.08,1.08a3.06,3.06,0,0,0,4.33,0h0l1.62-1.62Zm-3.18,34.3a3,3,0,1,1,3-3A3,3,0,0,1,15.14,53.84Z"/>
        <path id="Path_694" data-name="Path 694" class="cls-3"
              d="M48.08,33.07,32.93,17.91a9.2,9.2,0,0,0-13,0h0l-3.25,3.25a3.07,3.07,0,0,0,0,4.33h0l1.09,1.08a3.07,3.07,0,0,1,0,4.33L7.49,41.19A12.25,12.25,0,0,0,24.81,58.51L35.1,48.22a3.07,3.07,0,0,1,4.33,0l1.08,1.08a3.06,3.06,0,0,0,4.33,0h0l3.25-3.24a9.2,9.2,0,0,0,0-13Z"/>
        <line id="Line_34" data-name="Line 34" class="cls-3" x1="18.32" y1="19.54" x2="46.46" y2="47.68"/>
        <path id="Path_695" data-name="Path 695" class="cls-3" d="M40.51,13.25A12.24,12.24,0,0,1,52.75,25.49h0"/>
        <path id="Path_696" data-name="Path 696" class="cls-3" d="M40.51,1A24.5,24.5,0,0,1,65,25.49h0"/>
        <line id="Line_35" data-name="Line 35" class="cls-3" x1="1" y1="65" x2="7.49" y2="58.51"/>
        <circle id="Ellipse_18" data-name="Ellipse 18" class="cls-3" cx="15.14" cy="50.86" r="2.98"/>
      </g>
    </g>
  </g>
</svg>
