<svg xmlns="http://www.w3.org/2000/svg" width="66.414" height="66.414" viewBox="0 0 66.414 66.414">
  <g id="US" transform="translate(1.414 1)">
    <rect id="BG" width="64" height="64" fill="none"/>
    <path id="Контур_770" data-name="Контур 770" d="M1731.318,156.539l-1.624,1.623a3.061,3.061,0,0,0,0,4.329h0l1.083,1.083a3.061,3.061,0,0,1,0,4.33l-10.283,10.282a12.248,12.248,0,1,0,17.319,17.323l10.287-10.288a3.061,3.061,0,0,1,4.33,0l1.083,1.083a3.061,3.061,0,0,0,4.329,0h0l1.62-1.621Zm-3.178,34.3a2.977,2.977,0,1,1,2.977-2.977A2.977,2.977,0,0,1,1728.14,190.838Z" transform="translate(-1714 -138)" fill="#1dbab8"/>
    <path id="Path_694" data-name="Path 694" d="M1761.084,170.069l-15.154-15.154a9.183,9.183,0,0,0-12.987,0h0l-3.248,3.247a3.061,3.061,0,0,0,0,4.329h0l1.083,1.083a3.061,3.061,0,0,1,0,4.33l-10.283,10.282a12.248,12.248,0,1,0,17.319,17.323l10.287-10.288a3.061,3.061,0,0,1,4.33,0l1.083,1.083a3.061,3.061,0,0,0,4.329,0h0l3.247-3.248a9.183,9.183,0,0,0-.005-12.987Z" transform="translate(-1714 -138)" fill="none" stroke="#fff" stroke-linecap="round" stroke-linejoin="round" stroke-width="2"/>
    <line id="Line_34" data-name="Line 34" x2="28.143" y2="28.143" transform="translate(17.318 18.539)" fill="none" stroke="#fff" stroke-linecap="round" stroke-linejoin="round" stroke-width="2"/>
    <path id="Path_695" data-name="Path 695" d="M1753.508,150.246a12.245,12.245,0,0,1,12.246,12.244h0" transform="translate(-1714 -138)" fill="none" stroke="#fff" stroke-linecap="round" stroke-linejoin="round" stroke-width="2"/>
    <path id="Path_696" data-name="Path 696" d="M1753.508,138A24.491,24.491,0,0,1,1778,162.492h0" transform="translate(-1714 -138)" fill="none" stroke="#fff" stroke-linecap="round" stroke-linejoin="round" stroke-width="2"/>
    <line id="Line_35" data-name="Line 35" y1="6.494" x2="6.494" transform="translate(0 57.506)" fill="none" stroke="#fff" stroke-linecap="round" stroke-linejoin="round" stroke-width="2"/>
    <circle id="Ellipse_18" data-name="Ellipse 18" cx="2.977" cy="2.977" r="2.977" transform="translate(11.163 46.884)" fill="none" stroke="#fff" stroke-linecap="round" stroke-linejoin="round" stroke-width="2"/>
  </g>
</svg>
