<svg xmlns="http://www.w3.org/2000/svg" viewBox="0 0 58 66">
  <defs>
    <style>
      .cls-1{fill:#fff;}.cls-1,.cls-2,.cls-3{stroke:#333;stroke-linecap:round;stroke-linejoin:round;stroke-width:2px;}.cls-3{fill:none;}
    </style>
  </defs>
  <g id="Layer_2" data-name="Layer 2">
    <g id="Cash-back">
      <g id="Wallet">
        <rect class="cls-1" x="1" y="29" width="56" height="36" rx="4"/>
        <path class="cls-1" d="M13,1H45a2,2,0,0,1,2,2V40a0,0,0,0,1,0,0H11a0,0,0,0,1,0,0V3A2,2,0,0,1,13,1Z"/>
        <path class="cls-2" fill="#000" d="M45,1H13a2,2,0,0,0-2,2V40h6V13a6,6,0,0,0,6-6H35a6,6,0,0,0,6,6V40h6V3A2,2,0,0,0,45,1Z"/>
        <line class="cls-3" x1="7" y1="40" x2="51" y2="40"/>
        <path class="cls-2" d="M35.91,40A7.89,7.89,0,0,0,37,36a8,8,0,0,0-16,0,7.89,7.89,0,0,0,1.09,4Z"/>
        <path class="cls-3" d="M21,53a8,8,0,1,1,8,8"/>
        <line class="cls-3" x1="18.17" y1="52" x2="21" y2="54.83"/>
        <line class="cls-3" x1="23.83" y1="52" x2="21" y2="54.83"/>
      </g>
    </g>
  </g>
</svg>
